<svg width="1015" height="364" viewBox="0 0 1015 364" fill="none" xmlns="http://www.w3.org/2000/svg">
<g clip-path="url(#clip0_444_71)">
<path d="M894.627 40.2876C894.627 40.2876 901.492 76.4598 889.822 110.93C889.822 110.93 912.303 109.395 945.762 112.296L943.874 88.0638C943.874 88.0638 934.093 94.5483 920.707 92.6712C907.321 90.7941 911.783 83.2856 911.783 83.2856C911.783 83.2856 914.186 76.4598 937.353 77.6543C960.52 78.8488 967.556 94.5483 967.556 94.5483C967.556 94.5483 973.563 105.982 958.633 115.197C943.703 124.412 921.742 124.07 921.742 124.07C921.742 124.07 891.882 125.611 886.91 124.07C886.91 124.07 881.762 146.42 874.211 156.829C874.211 156.829 910.158 165.362 1005.31 150.686C1005.31 150.686 1011.92 43.018 1015.01 35.3389C1015.01 35.3389 962.156 39.9463 894.632 40.2876H894.627Z" fill="black"/>
<path d="M884.566 40.7998C884.566 40.7998 870.837 41.9943 847.16 41.9943C847.16 41.9943 864.321 114.258 812.328 148.809C812.328 148.809 852.823 154.697 865.865 155.55C865.865 155.55 893.121 102.679 884.571 40.7998H884.566Z" fill="black"/>
<path d="M758.298 40.7999L837.041 42.6771C837.041 42.6771 853.808 100.918 802.532 147.324C802.532 147.324 738.371 137.175 724.273 132.096C724.273 132.096 733.268 122.67 740.072 106.961C740.072 106.961 758.096 118.369 791.166 113.114C824.236 107.859 799.025 80.907 799.025 80.907C799.025 80.907 790.484 71.0697 777.75 73.3584C765.016 75.6471 772.602 83.8682 772.602 83.8682C772.602 83.8682 778.295 90.2022 789.541 89.3942C789.541 89.3942 785.881 106.103 786.154 107.854L745.225 96.1297C745.225 96.1297 758.565 76.691 758.303 40.7949L758.298 40.7999Z" fill="black"/>
<path d="M570 114.268C570 114.268 590.634 87.16 594.989 35.9609L614.3 37.0902C614.3 37.0902 613.922 45.1859 611.272 49.703C611.272 49.703 619.222 39.5395 632.097 37.0902L673.556 38.4102C673.556 38.4102 694.871 70.9185 686.139 122.459C686.139 122.459 648.673 113.776 615.148 113.214C615.148 113.214 615.229 80.7156 621.892 76.1182C621.892 76.1182 652.988 78.5123 654.836 65.257C656.683 52.0018 631.33 54.3958 631.33 54.3958C631.33 54.3958 617.632 56.1625 610.601 79.2049C603.57 102.247 606.901 113.475 606.901 113.475C606.901 113.475 592.35 112.295 570.01 114.263L570 114.268Z" fill="black"/>
<path d="M494.594 30.9824L541.347 33.8483C541.347 33.8483 541.347 70.8837 545.501 76.6405C549.655 82.3973 555.889 74.2816 557.373 62.7729C558.857 51.2643 558.71 34.8872 558.71 34.8872C558.71 34.8872 576.815 35.8258 587.349 35.9663C587.349 35.9663 580.817 88.0086 555.444 115.598C555.444 115.598 522.95 118.695 502.473 120.321C502.473 120.321 513.9 109.696 515.086 91.6976C515.086 91.6976 531.707 96.4205 532.742 88.892C533.776 81.3634 528.143 72.2188 519.982 62.3313C511.82 52.4438 494.594 30.9874 494.594 30.9874V30.9824Z" fill="black"/>
<path d="M403.052 22.6357C403.052 22.6357 461.379 29.045 477.985 30.0137C477.985 30.0137 505.437 45.3569 503.211 81.8051C503.211 81.8051 502.439 101.284 491.845 121.496C491.845 121.496 455.877 126.515 454.54 127.398C454.54 127.398 479.171 95.8232 475.461 77.9655C471.751 60.1078 445.636 68.3741 445.636 68.3741C445.636 68.3741 429.757 72.9465 415.958 88.2947C415.958 88.2947 418.179 48.5891 403.047 22.6357H403.052Z" fill="black"/>
<path d="M324.748 10.7861C324.748 10.7861 362.017 17.8931 392.19 21.1705C392.19 21.1705 411.097 66.0657 402.916 100.582L426.517 106.113L425.553 134.074C425.553 134.074 327.7 155.324 300.864 165.071C300.864 165.071 300.061 123.529 292.828 112.025C292.828 112.025 358.484 102.9 359.67 102.499C360.856 102.097 431.186 92.4507 325.283 68.7358C325.283 68.7358 331.481 25.9938 324.742 10.7861H324.748Z" fill="black"/>
<path d="M272.028 0C272.028 0 310.428 8.04048 314.471 8.442C314.471 8.442 320.937 54.8329 308.409 75.6518C308.409 75.6518 261.772 76.0282 253.727 81.4839C253.727 81.4839 276.561 30.6914 272.033 0.00501903L272.028 0Z" fill="black"/>
<path d="M927.747 169.548C927.747 169.548 904.882 231.618 917.551 271.259H937.947C937.947 271.259 923.764 228.552 954.23 215.517C954.23 215.517 978.139 209.53 972.653 224.326C972.653 224.326 968.226 231.021 947.325 232.426C947.325 232.426 939.81 253.476 949.359 270.501L1007.14 264.749C1007.14 264.749 1003.55 192.324 1005.11 160.945C1005.11 160.945 976.746 165.422 957.097 166.958C957.097 166.958 944.045 180.354 943.484 184.68L947.552 168.072L927.752 169.548H927.747Z" fill="#B40000"/>
<path d="M879.239 171.761C879.239 171.761 913.98 170.918 921.621 170.08C921.621 170.08 891.984 218.042 909.836 271.259L910.008 271.65C910.008 271.65 866.338 272.574 850.727 272.022C850.727 272.022 911.497 216.888 879.234 171.766L879.239 171.761Z" fill="#B40000"/>
<path d="M822.775 172.695C822.775 172.695 850.339 173.102 870.983 172.665C870.983 172.665 883.137 190.744 879.008 204.546C879.008 204.546 868.691 203.02 864.794 204.185C864.794 204.185 861.812 233.009 832.007 271.259C832.007 271.259 797.226 269.848 794.016 269.071C794.016 269.071 846.705 234.811 841.89 202.93C841.89 202.93 816.189 200.265 813.438 201.429C813.438 201.429 812.464 181.248 822.785 172.695H822.775Z" fill="#B40000"/>
<path d="M778.066 170.862C778.066 170.862 807.522 172.724 814.129 172.664C814.129 172.664 801.198 192.961 806.23 218.172C806.23 218.172 768.855 220.521 767.977 221.961C767.977 221.961 781.973 202.803 778.061 170.862H778.066Z" fill="#B40000"/>
<path d="M685.105 155.55C685.105 155.55 740.152 167.932 769.936 170.02C769.936 170.02 778.799 199.17 739.637 263.308C739.637 263.308 718.337 262.711 699.102 263.308C699.102 263.308 739.122 217.103 718.857 207.201C698.592 197.298 674.077 219.171 669.953 223.783C669.953 223.783 683.848 187.019 685.11 155.55H685.105Z" fill="#B40000"/>
<path d="M668.378 236.105C668.378 236.105 698.197 230.238 700.534 230.951C700.534 230.951 695.563 240.457 690.97 250.781C684.903 264.428 687.285 282.029 687.285 282.029C687.285 282.029 688.754 297.217 694.26 317.86C699.767 338.503 694.811 361.671 694.811 361.671C694.811 361.671 643.232 361.189 641.602 363.995C641.602 363.995 673.208 323.657 671.971 288.363C670.73 253.07 667.691 258.169 668.378 236.1V236.105Z" fill="#B40000"/>
<path d="M557.078 139.489C557.078 139.489 584.531 131.689 675.665 153.025C675.665 153.025 677.281 196.5 646.598 268.192C646.598 268.192 626.858 270.315 623.648 271.856C623.648 271.856 652.781 220.898 626.631 199.697C604.952 182.126 579.241 204.209 579.241 206.674C579.241 206.674 579.009 165.061 557.083 139.484L557.078 139.489Z" fill="#B40000"/>
<path d="M582.562 228.898C582.562 228.898 593.803 227.99 606.346 221.099C606.346 221.099 616.536 234.66 603.206 276.203L582.562 282.416C582.562 282.416 586.545 249.03 582.562 228.898Z" fill="#B40000"/>
<path d="M385.18 170.868C385.18 170.868 426.25 238.092 423.393 307.445C423.393 307.445 448.393 305.995 449.155 304.936C449.155 304.936 432.372 262.043 460.673 237.872C488.973 213.7 497.574 232.667 489.306 244.176C483.335 252.487 481.685 254.209 469.4 265.1C469.4 265.1 473.569 286.17 469.137 302.165C469.137 302.165 496.443 301.302 531.224 288.765C531.224 288.765 519.111 178.592 495.197 144.262C495.197 144.262 439.464 156.604 435.401 158.621C435.401 158.621 424.796 181.955 426.825 188.69C426.825 188.69 417.346 167.374 411.709 164.458L385.185 170.873L385.18 170.868Z" fill="#B40000"/>
<path d="M321.443 187.029C321.443 187.029 359.324 180.956 375.531 175.912C375.531 175.912 392.177 198.794 391.743 214.483C391.743 214.483 384.737 219.527 378.352 221.209C378.352 221.209 397.699 284.439 395.816 307.451C395.816 307.451 362.387 306.557 361.262 305.252C361.262 305.252 368.772 242.836 361.075 225.861C361.075 225.861 340.229 235.408 326.521 235.779C326.521 235.779 317.32 200.671 321.448 187.034L321.443 187.029Z" fill="#B40000"/>
<path d="M311.262 189.268C311.262 189.268 304.878 232.035 333.047 303.932L296.989 302.437C296.989 302.437 313.14 258.365 288.913 249.586C264.686 240.808 249.099 255.935 249.099 255.935C249.099 255.935 238.207 266.019 238.394 266.952C238.581 267.886 238.207 266.019 238.207 266.019C238.207 266.019 238.207 206.071 231.07 196.922C231.07 196.922 262.248 199.351 311.262 189.263V189.268Z" fill="#B40000"/>
<path d="M219.915 197.388C219.915 197.388 232.447 222.88 225.043 297.096C225.043 297.096 207.463 295.355 197.328 295.952C197.328 295.952 203.592 257.707 192.558 258.891C181.525 260.076 175.564 294.27 175.564 294.27C175.564 294.27 148.798 292.338 147.688 293.046C147.688 293.046 161.235 240.758 156.894 194.889C156.894 194.889 191.059 197.594 219.915 197.388Z" fill="#B40000"/>
<path d="M145.457 195.11C145.457 195.11 134 195.034 113.815 193.694C113.815 193.694 114.355 215.974 105.164 251.564C105.164 251.564 128.225 246.178 145.265 248.748C145.265 248.748 149.46 229.254 145.462 195.11H145.457Z" fill="#B40000"/>
<path d="M104.49 193.785C104.49 193.785 103.006 242.103 88.0458 288.283C88.0458 288.283 69.0022 285.478 64.3183 286.612C64.3183 286.612 79.6067 228.105 50.9933 270.18C44.8557 279.204 44.1339 283.686 44.1339 283.686C44.1339 283.686 10.347 276.488 0.181704 278.245C0.181704 278.245 2.3672 251.117 0 251.569C0 251.569 30.4809 267.665 33.4689 242.655C37.1888 211.522 31.6569 183.827 31.6569 183.827C31.6569 183.827 67.8615 192.555 104.49 193.79V193.785Z" fill="#B40000"/>
</g>
<defs>
<clipPath id="clip0_444_71">
<rect width="1015" height="364" fill="white"/>
</clipPath>
</defs>
</svg>
